<svg version="1.0" xmlns="http://www.w3.org/2000/svg" width="100%" height="100%" viewBox="0 0 512.000000 512.000000">
  <g transform="translate(0.000000,512.000000) scale(0.100000,-0.100000)" fill="#FFFFF0" stroke="none">
    <path d="M2403 5059 c-242 -24 -493 -125 -651 -264 -66 -59 -136 -156 -169   -237 -35 -84 -43 -224 -18 -317 24 -93 85 -207 85 -159 0 20 76 164 111 212 39 53 149 176 220 247 261 256 905 258 1163 2 31 -30 56 -59 56 -63 0 -5 19 -28 42 -52 70 -73 129 -158 178 -261 52 -107 50 -107 93 -22 102 205 67 428 -98 603 -160 172 -417 283 -716 311 -127 12 -164 12 -296 0z"/>
    <path d="M2390 4374 c-167 -44 -329 -174 -402 -324 -116 -239 -79 -508 99 -718 25 -29 43 -55 40 -58 -9 -10 -172 60 -387 167 -200 100 -546 293 -875 489 -169 101 -352 191 -445 221 -67 22 -70 22 -90 4 -25 -22 -26 -68 -5 -186 16 -93 48 -195 89 -281 70 -148 209 -317 325 -393 41 -27 59 -45 55 -55 -3 -8 -12 -40 -20 -70 -53 -204 54 -450 235 -537 31 -14 57 -27 58 -28 1 0 -9 -23 -22 -50 -28 -54 -33 -122 -13 -188 16 -52 93 -135 157 -170 62 -34 210 -64 359 -73 61 -4 116 -10 122 -14 9 -5 -55 -242 -224 -834 -198 -695 -236 -837 -236 -891 0 -128 63 -231 178 -287 l67 -33 1105 0 1105 0 67 33 c115 56 178 159 178 287 0 54 -38 196 -236 891 -169 592 -233 829 -224 834 6 4 62 10 123 14 157 9 299 40 372 80 136 74 193 228 130 351 -13 27 -23 50 -22 50 1 1 24 12 50 24 209 100 311 381 223 611 -4 10 9 24 41 45 73 45 223 200 281 289 90 139 146 302 159 463 7 93 -8 133 -50 133 -86 0 -262 -85 -617 -297 -313 -187 -382 -226 -576 -331 -218 -117 -579 -281 -592 -268 -2 3 18 34 47 68 110 135 155 257 155 423 0 184 -54 316 -184 446 -82 83 -174 136 -285 164 -75 19 -241 19 -315 -1z"/>
  </g>
</svg>
